# xmcd
#
# Track frame offsets:
#	150
#	30269
#	59311
#	87926
#	108953
#	133268
#	165427
#	202100
#	222345
#	249036
#	276932
#	300321
#
# Disc length: 4350 seconds
#
# Revision: 0
# Processed by: cddbd v1.5.2PL0 Copyright (c) Steve Scherf et al.
# Submitted via: EasyCDDAExtractor 10.0.2.1
#
DISCID=9c10fc0c
DTITLE=Peter Green and Kolors - Live in Frankfurt, Kinkkasten
DYEAR=1984
DGENRE=Blues
TTITLE0=Womanizer
TTITLE1=Green Instrumental
TTITLE2=White Sky
TTITLE3=Where You Goin
TTITLE4=A Loser Two Times
TTITLE5=Into The Skies
TTITLE6=Love That Burns
TTITLE7=Man Of The World
TTITLE8=I'm A Free Boy Now
TTITLE9=Oh Well
TTITLE10=Black Magic Woman
TTITLE11=Outros
EXTD=
EXTT0=
EXTT1=
EXTT2=
EXTT3=
EXTT4=
EXTT5=
EXTT6=
EXTT7=
EXTT8=
EXTT9=
EXTT10=
EXTT11=
PLAYORDER=
